<?xml version="1.0" encoding="UTF-8"?>
<svg id="Laag_1" data-name="Laag 1" xmlns="http://www.w3.org/2000/svg" version="1.1" viewBox="0 0 600 262.5">
  <defs>
    <style>
      .cls-1 {
        fill: #1d1d1b;
      }

      .cls-1, .cls-2 {
        stroke-width: 0px;
      }

      .cls-2 {
        fill: #be1622;
      }
    </style>
  </defs>
  <g>
    <path class="cls-1" d="M354.9,58.5c0-.5.2-.9.5-1.2s.6-.4,1-.4c.6,0,.9.4,1.1,1.1v2.6c1.1-1.3,2.2-2.6,3.3-3.9,1.1-1.3,2.3-2.5,3.6-3.5,1.2-1,2.5-1.8,3.9-2.5,1.3-.6,2.7-1,4.2-1s1.8.2,2.7.5c3,1,5.1,2.5,6.3,4.5,1.2,2,1.8,4.2,1.8,6.6s-.3,3.9-.8,5.9c-.6,2-1.3,3.9-2.1,5.6-.9,1.8-1.8,3.3-2.8,4.7-1,1.4-1.9,2.5-2.7,3.2-1,.8-2.2,1.6-3.7,2.2-1.5.7-3,1-4.5,1s-2-.2-3-.6-1.9-1.1-2.6-2c0-.5.2-.8.5-1.2.3-.3.6-.5.9-.5s.8.2,1.1.7c.5.2,1,.3,1.5.4.5.1.9.2,1.5.2,1.5,0,2.9-.4,4.2-1.3,1.3-.8,2.5-1.9,3.5-3.1,1-1.2,1.9-2.6,2.7-4,.7-1.4,1.3-2.7,1.7-4,.4-1.1.6-2.1.8-3.2.2-1.1.2-2.1.2-3,0-2.3-.5-4.1-1.4-5.6-.9-1.4-2.3-2.2-4.1-2.2s-2.8.4-4.2,1.1-2.8,1.8-4.2,3c-1.3,1.2-2.6,2.6-3.8,4.2-1.2,1.6-2.3,3.1-3.2,4.7.3,2.3.5,4.3.6,6.2.2,1.8.2,3.7.2,5.6s-.2,4.9-.5,7.4c-.3,2.4-.9,4.6-1.6,6.5-.7,1.9-1.6,3.4-2.7,4.6-1.1,1.2-2.4,1.8-3.9,1.8s-3.4-.8-4.2-2.4c-.7-1.6-1.1-3.9-1.1-6.8s0-3.1.2-4.5c.2-1.4.3-2.4.5-3,.5-1.7,1.1-3.3,1.8-4.8.7-1.6,1.4-3.1,2.1-4.6.8-1.5,1.6-3,2.4-4.6.9-1.6,1.8-3.2,2.7-4.8,0-1,0-1.9,0-2.8s0-1.9,0-2.8ZM355,85c0-1,.1-1.9.2-2.7,0-.8.1-1.6.2-2.3,0-.7.1-1.5.2-2.2,0-.7,0-1.5,0-2.4s0-.7,0-1.1c0-.4,0-.7,0-1.1-.7,1.5-1.4,3-2.1,4.5-.7,1.6-1.4,3.1-2,4.8-.6,1.6-1.1,3.3-1.5,5-.4,1.7-.6,3.4-.6,5s.1,2.1.4,2.7c.3.6.6.8.9.8s.8-.3,1.3-.9c.5-.6,1-1.4,1.4-2.4.4-1,.8-2.1,1.1-3.5.3-1.3.5-2.7.6-4.1Z"/>
    <path class="cls-1" d="M375.6,91.6c0,0,0,0-.1,0s0,0-.2,0c-.4,0-.7-.1-1-.4-.2-.3-.3-.6-.3-1s.2-.8.5-1.1c.5-.8,1.1-2,1.8-3.5.7-1.5,1.5-3.1,2.3-4.7.8-1.6,1.5-3.2,2.2-4.6.7-1.5,1.3-2.5,1.7-3.2.4-.4.9-.6,1.5-.6s1,.2,1.5.5c1,1.4,1.9,2.6,2.6,3.5.7,1,1.3,1.9,1.8,2.7.5.8.8,1.7,1,2.4.2.8.3,1.6.3,2.6s-.1,2.4-.4,3.7c-.3,1.4-.6,3.1-1,5.3,1.2-.3,2.4-.6,3.6-1.1,1.2-.5,2.3-.9,3.5-1.4.2-.1.4-.2.6-.2.4,0,.7.1.9.4.2.3.3.5.3.8s-.4.9-1.1,1.4-1.7,1.1-2.7,1.6c-1,.6-2.1,1.1-3.2,1.6-1.1.5-2,.9-2.7,1.1h-.8c-.9,0-1.6-.4-2.2-1.3-.5-.9-.8-1.7-.8-2.5s.1-1.7.4-2.6c.3-.9.4-1.7.5-2.6.2-1.1.2-2.1.2-3.1,0-1.4-.2-2.6-.5-3.8-.4-1.2-1-2.4-1.8-3.8-.2.3-.5.8-.9,1.6-.4.7-.9,1.6-1.3,2.6s-1,2-1.6,3c-.6,1-1.1,2-1.6,2.9-.5.9-1,1.7-1.5,2.4-.5.7-.9,1.1-1.3,1.2Z"/>
    <path class="cls-1" d="M410.7,79.6c-.5,1.1-1.1,2.1-1.6,3.2-.6,1.1-1.2,2.1-2,3-.7.9-1.6,1.7-2.4,2.4-.9.7-1.9,1.2-3,1.5,0,1.1.2,2.1.5,3.2.3,1,.9,1.6,1.9,1.6s.5,0,.8,0c.3,0,.6-.2,1-.5.3-.2.8-.4,1.3-.8.6-.4,1.2-.9,1.9-1.4.7-.5,1.3-1.1,2-1.8.6-.6,1.1-1.3,1.4-1.9.2-.4.4-.5.7-.5s.7.2,1,.5c.3.3.5.7.5,1.1s-.3.9-.9,1.7c-.6.8-1.3,1.6-2.1,2.4-.8.8-1.6,1.6-2.4,2.3-.8.7-1.5,1.2-1.9,1.4-.2,0-.6.3-1.3.7-.7.4-1.4.6-1.9.6-1.1,0-2.1-.2-2.9-.7-.8-.5-1.5-1.1-2-1.8-.5-.8-.9-1.6-1.2-2.6-.3-1-.4-2-.4-3.1-.3-.2-.5-.4-.5-.8s.1-.7.4-.9c0-.6,0-1.2,0-1.9,0-.6.2-1.3.4-1.9.3-1.1.7-2.3,1.3-3.8.5-1.5,1.2-2.9,2-4.2.8-1.3,1.8-2.5,2.9-3.4,1.1-.9,2.4-1.4,3.8-1.4s2.4.5,2.9,1.4c.5.9.8,2,.8,3.2s0,1.4-.2,2.1c-.1.7-.3,1.2-.6,1.6ZM407,76.4c-.5.4-1,1-1.5,1.8-.5.8-1,1.6-1.4,2.6-.4.9-.8,1.9-1.1,2.8-.4,1-.6,1.9-.8,2.7.6-.6,1.4-1.6,2.3-3.2.2-.4.5-.8.8-1.3.3-.5.6-1.1.8-1.8.3-.6.5-1.3.7-1.9.2-.6.3-1.2.3-1.7Z"/>
    <path class="cls-1" d="M418.9,84.9c.2-1.7.3-3.3.6-4.9.2-1.6.5-3.2.9-4.8-1.8.4-3.1.8-3.9,1.1-.8.3-1.4.5-1.8.5-.6,0-.9-.4-.9-1.2s.5-1.5,1.5-2.2,2.1-1.3,3.5-1.9c.8-.7,1.4-1.4,1.9-1.9.5-.6.8-1.2,1.1-1.8.3-.6.6-1.3.8-2.1s.5-1.7.8-2.7c.2-.5.3-1.2.6-2.3.2-1,.5-2.1.9-3.2.4-1.1.9-2,1.4-2.8.6-.8,1.2-1.2,2.1-1.2s1.2.4,1.2,1.1,0,1-.2,1.7c-.2.7-.4,1.7-.6,2.9-.3,1.2-.6,2.6-1,4.3-.4,1.7-.8,3.7-1.3,6.1.5,0,1,0,1.5,0s.9,0,1.4,0h2c.8,0,1.6,0,2.3.1.7,0,1.4.2,1.9.4.5.2.8.5.8,1s-.4.8-1.3,1.1-1.9.6-3.1.8c-1.2.3-2.4.5-3.6.7-1.2.2-2.2.5-2.8.7-.6,2.4-1,5-1.5,7.8-.4,2.8-.6,5.4-.6,7.8s0,.7,0,1.2c0,.5,0,1,0,1.6,0,.5,0,1,.2,1.4,0,.4.2.6.3.6.6,0,1.7-.8,3.5-2.5,1.8-1.7,3.6-4,5.6-7.1.3-.3.6-.4.9-.4s.7.1.9.3c.3.2.4.5.4.9s-.1.6-.4.9c-.7,1.4-1.6,2.8-2.6,4.3-1,1.5-2,2.8-3.1,4-1.1,1.2-2.1,2.1-3.2,2.9s-2.1,1.1-3,1.1-1.6-.3-2.1-.9c-.5-.6-1-1.3-1.3-2.2-.3-.9-.6-1.8-.7-2.7-.1-1-.2-1.8-.2-2.6s0-2,.1-3c0-1,.2-1.9.3-2.7Z"/>
    <path class="cls-1" d="M436.5,84.9c.2-1.7.3-3.3.6-4.9.2-1.6.5-3.2.9-4.8-1.8.4-3.1.8-3.9,1.1-.8.3-1.4.5-1.8.5-.6,0-.9-.4-.9-1.2s.5-1.5,1.5-2.2,2.1-1.3,3.5-1.9c.8-.7,1.5-1.4,1.9-1.9.5-.6.8-1.2,1.1-1.8.3-.6.6-1.3.8-2.1s.5-1.7.8-2.7c.2-.5.3-1.2.6-2.3.2-1,.5-2.1.9-3.2.4-1.1.9-2,1.4-2.8.6-.8,1.2-1.2,2.1-1.2s1.2.4,1.2,1.1,0,1-.2,1.7c-.2.7-.4,1.7-.6,2.9-.3,1.2-.6,2.6-1,4.3-.4,1.7-.8,3.7-1.3,6.1.5,0,1,0,1.5,0s.9,0,1.4,0h2c.8,0,1.6,0,2.3.1.7,0,1.4.2,1.9.4.5.2.8.5.8,1s-.4.8-1.3,1.1-1.9.6-3.1.8c-1.2.3-2.4.5-3.6.7-1.2.2-2.2.5-2.8.7-.6,2.4-1,5-1.5,7.8-.4,2.8-.6,5.4-.6,7.8s0,.7,0,1.2c0,.5,0,1,0,1.6,0,.5,0,1,.2,1.4,0,.4.2.6.3.6.6,0,1.7-.8,3.5-2.5,1.8-1.7,3.6-4,5.6-7.1.3-.3.6-.4.9-.4s.7.1.9.3c.3.2.4.5.4.9s-.1.6-.4.9c-.7,1.4-1.6,2.8-2.6,4.3-1,1.5-2,2.8-3.1,4-1.1,1.2-2.1,2.1-3.2,2.9s-2.1,1.1-3,1.1-1.6-.3-2.1-.9c-.5-.6-1-1.3-1.3-2.2-.3-.9-.6-1.8-.7-2.7s-.2-1.8-.2-2.6,0-2,.1-3c0-1,.2-1.9.3-2.7Z"/>
    <path class="cls-1" d="M452.3,77.6c0-.4.2-.7.5-.9.3-.2.5-.3.8-.3.8,0,1.2.6,1.2,1.8s-.1,3-.3,4.5c-.2,1.5-.3,3-.3,4.5s0,1.1,0,1.6c0,.5.1,1,.3,1.6,1.3-1,2.3-2.1,3-3.3.7-1.2,1.4-2.5,1.9-3.8.5-1.3,1-2.7,1.3-4,.4-1.4.9-2.8,1.4-4.2.5-.9,1.2-1.3,2.1-1.3s1.4.4,1.7,1.1c.3.7.4,1.7.4,3s0,2.7-.1,4.1c0,1.4-.1,2.7-.1,4.1v1.5c1.4-.8,2.8-1.5,4.4-2.2,1.6-.7,3.1-1,4.5-1s1.2.1,1.6.3.7.7.7,1.3-.1,1-.4,1.3c-.3.3-.6.4-.9.4-.6,0-.9-.3-1.1-.8h-.5c-1.5.4-2.9,1-4.3,1.7-1.4.7-2.7,1.5-4,2.4,0,.8,0,1.5,0,2.3,0,.7,0,1.5,0,2.2,0,3.2-.2,6.4-.5,9.5-.3,3.1-1,6.3-2,9.5-.4,1.1-.8,2.3-1.4,3.4-.6,1.1-1.2,2.2-2,3.1-.8.9-1.6,1.7-2.6,2.3s-2.1.9-3.3.9-2.5-.3-3.5-.9-1.8-1.4-2.6-2.4c-.7-1-1.2-2.1-1.6-3.3-.4-1.2-.5-2.4-.5-3.6,0-2.7.4-5.2,1.2-7.5.8-2.3,1.9-4.4,3.3-6.4,1.4-1.9,3-3.7,4.9-5.3,1.9-1.6,3.8-3.1,5.9-4.5v-1.5c0-.5,0-.9,0-1.4,0,0-.2.2-.4.5-.2.3-.4.7-.7,1.2s-.6.9-.9,1.3c-.3.4-.5.7-.7.8l-2.8,2c-.5.4-1.1.5-1.7.5s-1.3-.2-1.7-.5c-.4-.3-.8-.8-1-1.3-.3-.5-.4-1.1-.5-1.8,0-.7-.1-1.3-.1-2,0-1.8.2-3.5.5-5.3.4-1.8.6-3.5.7-5.3ZM461.3,102.8c.2-2,.2-3.9.2-5.9v-2.5c-3.3,2.6-5.8,5.5-7.7,8.6-1.9,3.1-3,6.6-3.2,10.3,0,.5,0,1,.2,1.8.1.7.3,1.4.6,2,.3.6.6,1.2,1.1,1.7.4.5,1,.7,1.6.7s1.3-.2,1.8-.7c.5-.5,1-1.1,1.3-1.8s.7-1.4,1-2.1c.3-.7.5-1.4.6-1.9.5-1.4,1-2.9,1.4-4.7.4-1.8.7-3.6,1-5.5Z"/>
  </g>
  <g>
    <path class="cls-2" d="M52.1,132.9c0,2.7-1.7,4.1-5.1,4.1s-6.9-.6-9.5-1.9-4.6-3-6.2-5.1c-1.5-2.1-2.6-4.6-3.2-7.3-.6-2.7-.9-5.6-.9-8.5,0-6.7,1-13.5,3.1-20.4,2.1-6.9,4.9-13.6,8.5-20s7.8-12.4,12.6-18c4.8-5.6,10-10.3,15.6-14.2,2.4-1.7,4.7-2.9,7.1-3.6,2.3-.7,4.7-1,7.1-1,3.4,0,6.7.8,9.7,2.4,3.1,1.6,5.7,3.7,8,6.2,2.2,2.5,4,5.3,5.3,8.3,1.3,3.1,1.9,6,1.9,8.7s0,2.3-.3,2.8c5.8-3.4,11.6-5.9,17.4-7.6,5.8-1.6,11.3-2.4,16.4-2.4,8.9,0,16.3,2.4,22.3,7.2,6,4.8,9,12.1,9,22.1s-1.2,10.1-3.6,14.9c-2.4,4.8-5.5,9.3-9.4,13.6-3.8,4.3-8.2,8.4-13,12.3-4.8,3.9-9.5,7.5-14.1,10.8-4.6,3.3-9,6.2-13.1,8.9-4.1,2.7-7.4,4.9-10,6.8l-2.6,1.5c3.6,3.1,7.5,5.9,11.8,8.3,4.3,2.5,8.7,4.8,13.2,7.1,4.5,2.2,9,4.3,13.3,6.3,4.4,2,8.4,3.9,12.2,5.8,1.5,1,2.3,2.2,2.3,3.6s-.4,2.2-1.2,3.1c-.8.9-1.8,1.3-3.2,1.3s-1.8-.2-2.3-.5c-7.5-2.4-15.4-5.9-23.6-10.4-8.2-4.5-16.3-8.9-24.1-13.2-1-.5-2.1-1.1-3.3-1.8-1.2-.7-2.4-1.5-3.5-2.4-1.1-.9-2.1-2-2.9-3.1-.9-1.1-1.3-2.3-1.3-3.7s.4-3.2,1.3-4.5c.9-1.3,1.9-2.4,3.1-3.3,1.2-.9,2.5-1.8,4-2.6,1.5-.8,2.9-1.6,4.2-2.4,5.3-3.4,10.9-7.4,16.8-11.8,5.9-4.4,11.3-9.2,16.2-14.2,4.9-5,8.9-10.2,12.1-15.5,3.2-5.3,4.7-10.5,4.7-15.6s-1.3-7.6-3.8-10.4c-2.6-2.8-6.7-4.2-12.3-4.2s-11.5,1.2-16,3.7c-4.5,2.5-8.4,5.6-11.7,9.5-3.3,3.8-6,8.1-8.2,12.8-2.2,4.7-4.2,9.4-5.9,14-2.9,7.7-5.9,16.6-9,26.8-3.1,10.2-6.1,20.5-9.1,30.9-3,10.4-5.9,20.5-8.7,30.3-2.8,9.7-5.4,18-7.8,24.6-.2-.2-.3-.3-.5-.3v.3c-2.1,2.6-4.4,3.8-7.2,3.8s-3.8-.8-5.4-2.4c-1.5-1.6-2.3-3.7-2.3-6.3v-2.3c2.7-10.8,5.9-21.3,9.4-31.7,3.5-10.3,7-20.8,10.4-31.4,2.7-10.9,5.9-21.1,9.5-30.5l2.6-9c1-3.2,2-6.9,2.9-10.9.9-4,1.8-8.1,2.6-12.3.8-4.2,1.4-8.4,2.1-12.7.6-4.3.9-8.3.9-12.1s-.6-7.8-1.9-9.5c-1.3-1.7-3.6-2.6-6.8-2.6s-8.1,1.6-12.1,4.7c-3.9,3.2-7.6,7.1-10.9,11.7s-6.3,9.5-8.9,14.6c-2.6,5.1-4.6,9.7-6.2,13.6-.9,2.2-1.8,5.1-2.7,8.6-.9,3.5-1.4,7-1.4,10.4s.8,7,2.4,9.6c1.6,2.7,4.7,4,9.4,4h1.5c1.5,1,2.3,2.3,2.3,3.8Z"/>
    <path class="cls-2" d="M206,136.8c-1.7,3.6-3.6,7.2-5.5,10.8-2,3.6-4.2,6.9-6.7,10-2.5,3.1-5.2,5.8-8.2,8.1-3,2.3-6.4,4-10.1,5,0,3.6.5,7.1,1.5,10.6,1,3.5,3.2,5.3,6.4,5.3s1.8,0,2.7-.3c.9-.2,2-.7,3.2-1.5,1-.5,2.5-1.5,4.5-2.8,2-1.4,4.1-2.9,6.4-4.7s4.5-3.8,6.7-5.9c2.1-2.1,3.7-4.3,4.7-6.5.5-1.2,1.3-1.8,2.3-1.8s2.3.5,3.3,1.5c1,1,1.5,2.2,1.5,3.6s-1,3.1-3.1,5.6c-2.1,2.6-4.4,5.2-7.1,8-2.7,2.7-5.4,5.3-8.2,7.7-2.8,2.4-5,3.9-6.5,4.6-.5.2-2,.9-4.5,2.3-2.5,1.4-4.6,2.1-6.3,2.1-3.8,0-7-.8-9.7-2.3-2.7-1.5-5-3.6-6.8-6.2s-3.1-5.5-4-8.9c-.9-3.3-1.3-6.8-1.3-10.4-1-.5-1.5-1.5-1.5-2.8s.4-2.2,1.3-3.1c0-2.1,0-4.1.3-6.3.2-2.1.6-4.3,1.3-6.5,1-3.6,2.4-7.9,4.2-12.8,1.8-5,4.1-9.7,6.8-14.2,2.7-4.5,6-8.4,9.7-11.5,3.8-3.2,8-4.7,12.8-4.7s8,1.6,9.7,4.7c1.7,3.2,2.6,6.8,2.6,10.9s-.2,4.7-.6,7.1c-.4,2.3-1.1,4.1-1.9,5.5ZM193.7,126c-1.7,1.4-3.4,3.4-5.1,6-1.7,2.7-3.3,5.5-4.6,8.6-1.4,3.1-2.7,6.2-3.8,9.5-1.2,3.3-2.1,6.2-2.8,9,2.1-1.9,4.6-5.5,7.7-10.8.7-1.2,1.5-2.7,2.6-4.5s2-3.8,2.8-5.9c.9-2.1,1.6-4.2,2.3-6.3.7-2.1,1-3.9,1-5.6Z"/>
    <path class="cls-2" d="M220.6,127c-.5-1-.8-1.8-.8-2.3,0-2.9,1.4-4.4,4.1-4.4s2.8.7,4.2,2.2c1.5,1.5,2.5,2.9,3.2,4.5,1,2.4,1.7,6,2.1,10.8.3,4.8.5,9.9.5,15.4v9c0,2.9,0,5.6-.3,8,.3,1.5.5,3.1.5,4.6s0,3.2.3,4.9c9.4-12.8,18.3-25.9,26.6-39.1,8.3-13.3,16.8-26.5,25.5-39.6,1-1.7,2.4-2.6,4.1-2.6s1.9.4,2.7,1.2c.8.8,1.2,1.8,1.2,2.9s0,.7-.1,1.2c0,.4-.1.8-.1,1.2-2.7,5.6-6.2,12.8-10.3,21.4-4.1,8.6-8.5,17.5-13.2,26.6-4.7,9.1-9.6,17.5-14.6,25.4-5,7.9-9.9,13.9-14.5,18-1.4,1.4-3.4,2.4-6,3.1-2.7.7-4.4,1-5.3,1-2.2,0-4-.7-5.4-2.1-1.4-1.4-2.4-3.1-3.2-5.3-.8-2.1-1.3-4.5-1.7-7.2-.3-2.7-.5-5.2-.5-7.6,0-6.8.6-13.8,1.7-20.8,1.1-7,1.7-13.3,1.7-18.7s-.2-4.6-.5-6.5c-.3-2-.9-3.6-1.8-5Z"/>
    <path class="cls-2" d="M295.3,132.7c2.1-2.6,3.8-3.8,5.4-3.8s2.8,1.6,2.8,4.9c-1.4,8.4-2.7,16.2-4,23.3-1.3,7.2-1.9,13-1.9,17.4s.9,7.3,2.8,7.4c1.2.5,2.6.8,4.1.8,4.1,0,8.7-1.2,13.9-3.6,5.1-2.4,9.5-5.5,13.1-9.2,1-.3,1.8-.5,2.3-.5,1.2,0,2.2.4,3.1,1.3.9.9,1.3,1.9,1.3,3.1s-.4,1.9-1.3,3.1c-8.7,7.2-16.3,12.2-22.6,15-6.3,2.8-11.7,4.2-16.2,4.2s-8.9-1.7-11.2-5c-2.3-3.3-3.5-7.6-3.5-12.7,0-9.4,1.3-17.7,3.8-25,2.6-7.3,5.2-14.1,8-20.7ZM311.9,86c.9,1.4,1.3,2.7,1.3,3.8s-.5,2.9-1.4,4c-.9,1.1-2.1,1.7-3.5,1.7s-2.6-.6-3.7-1.9c-1.1-1.3-1.7-2.5-1.7-3.7s.5-2.6,1.5-3.6c1-1,2.2-1.5,3.6-1.5s2.8.4,3.8,1.3Z"/>
    <path class="cls-2" d="M374,136.8c-1.7,3.6-3.6,7.2-5.5,10.8-2,3.6-4.2,6.9-6.7,10-2.5,3.1-5.2,5.8-8.2,8.1-3,2.3-6.4,4-10.1,5,0,3.6.5,7.1,1.5,10.6,1,3.5,3.2,5.3,6.4,5.3s1.8,0,2.7-.3c.9-.2,2-.7,3.2-1.5,1-.5,2.5-1.5,4.5-2.8,2-1.4,4.1-2.9,6.4-4.7s4.5-3.8,6.7-5.9c2.1-2.1,3.7-4.3,4.7-6.5.5-1.2,1.3-1.8,2.3-1.8s2.3.5,3.3,1.5c1,1,1.5,2.2,1.5,3.6s-1,3.1-3.1,5.6c-2.1,2.6-4.4,5.2-7.1,8-2.7,2.7-5.4,5.3-8.2,7.7-2.8,2.4-5,3.9-6.5,4.6-.5.2-2,.9-4.5,2.3-2.5,1.4-4.6,2.1-6.3,2.1-3.8,0-7-.8-9.7-2.3-2.7-1.5-5-3.6-6.8-6.2s-3.1-5.5-4-8.9c-.9-3.3-1.3-6.8-1.3-10.4-1-.5-1.5-1.5-1.5-2.8s.4-2.2,1.3-3.1c0-2.1,0-4.1.3-6.3.2-2.1.6-4.3,1.3-6.5,1-3.6,2.4-7.9,4.2-12.8,1.8-5,4.1-9.7,6.8-14.2,2.7-4.5,6-8.4,9.7-11.5,3.8-3.2,8-4.7,12.8-4.7s8,1.6,9.7,4.7c1.7,3.2,2.6,6.8,2.6,10.9s-.2,4.7-.6,7.1c-.4,2.3-1.1,4.1-1.9,5.5ZM361.7,126c-1.7,1.4-3.4,3.4-5.1,6-1.7,2.7-3.3,5.5-4.6,8.6-1.4,3.1-2.7,6.2-3.8,9.5-1.2,3.3-2.1,6.2-2.8,9,2.1-1.9,4.6-5.5,7.7-10.8.7-1.2,1.5-2.7,2.6-4.5s2-3.8,2.8-5.9c.9-2.1,1.6-4.2,2.3-6.3.7-2.1,1-3.9,1-5.6Z"/>
    <path class="cls-2" d="M408.9,125.7c-1.5,2.9-3,6.6-4.5,11-1.5,4.4-2.8,9.1-4.1,13.9-1.3,4.8-2.3,9.4-3.1,13.9-.8,4.4-1.2,8-1.2,10.8v2.8c3.6-3.6,6.9-7.9,9.9-13,3-5,5.7-10.3,8.1-15.8.9-3.9,2-7.7,3.5-11.2,1.5-3.5,3-7,4.7-10.4l.3.3.8-1c1.9-1.7,4-2.6,6.4-2.6s3.8.8,5.3,2.3c1.5,1.5,2.2,3.7,2.2,6.4s-.7,4-2.2,7.3c-1.5,3.3-2.9,6.5-4.2,9.6-.9,3.6-1.6,7.4-2.2,11.5-.6,4.1-.9,7.7-.9,10.8s.3,5.3.8,6.5c.5,1.3,1.4,2.9,2.8,5l6.7,1.3c.2,0,.3,0,.5.1.2,0,.3.1.5.1,2.6,0,5.3-1.1,8.3-3.3,3-2.2,5.9-4.7,8.6-7.6,2.7-2.8,5.2-5.6,7.3-8.5,2.1-2.8,3.5-4.9,4.2-6.3,3.2-6.5,5.6-13.2,7.2-20.1,1.5-6.9,2.3-13.9,2.3-20.9v-3.6c0-1.9.2-3.5.6-4.9.4-1.4,1.8-2.1,4.2-2.1s2.9.3,4.5,1c1.6.7,3.2,1.5,4.6,2.4,1.4.9,2.7,1.9,3.7,2.9,1,1,1.5,2,1.5,2.8,0,2.6-1.8,3.8-5.4,3.8l-4.1-1.5c.2.7.3,1.6.3,2.8,0,8.4-.8,16.7-2.3,24.9-1,5.5-2.9,11.3-5.6,17.6-2.7,6.2-6.2,12-10.3,17.3-4.1,5.3-8.9,9.7-14.5,13.2-5.6,3.5-11.7,5.3-18.3,5.3s-13.3-1.9-16.8-5.6c-3.5-3.8-5.7-8.5-6.5-14.1-2.9,3.4-5.8,6.2-8.7,8.3-2.9,2.1-5.8,3.4-8.7,3.7-4.8,0-7.9-1.6-9.4-4.7-1.5-3.2-2.2-6.7-2.2-10.6s.3-6.1.8-8.5c.3-2.9,1.3-7.3,2.9-13.1,1.6-5.8,3.6-11.7,5.9-17.6,2.3-5.9,4.7-11.1,7.3-15.5,2.6-4.4,5-6.7,7.4-6.7s2.1.4,2.8,1.2c.7.8,1.2,1.6,1.5,2.4v1.3c0,2.6-1.1,4-3.3,4.4Z"/>
    <path class="cls-2" d="M495.9,163.4c-1,1.4-2.2,2.1-3.6,2.1s-2.2-.4-2.9-1.3c-.8-.9-1.2-2-1.2-3.3v-1.3c2.1-4.6,4.8-9.4,8.2-14.5,3.4-5,6.9-9.9,10.5-14.5s6.9-8.9,10-12.8c3.1-3.9,5.3-7.2,6.7-9.7,0-1.7,1-2.9,2.9-3.6,2-.7,3.3-1,4-1,2.1,0,3.7.7,5,2.1,1.3,1.4,1.9,3.4,1.9,6.2-2.4,8.6-3.6,17-3.6,25.4s.4,8.7,1.3,12.8c.9,4.1,1.9,8.4,3.1,12.8,4.8-2.4,9.5-4.6,14.2-6.7,4.7-2.1,9.4-4.1,14-6.2,1-.3,1.8-.5,2.3-.5,1.4,0,2.4.4,3.1,1.3.7.9,1,1.8,1,2.8s-1.2,2.7-3.6,4.4c-2.4,1.7-5.3,3.5-8.6,5.3-3.3,1.8-6.9,3.6-10.6,5.5-3.8,1.9-7,3.7-9.7,5.4,0,5.5-.8,10.1-2.4,14-1.6,3.8-3.7,7-6.2,9.4-2.5,2.4-5.2,4.1-8.1,5.1-2.9,1-5.6,1.5-8.2,1.5-3.9,0-7.2-1.1-9.7-3.2-2.6-2.1-3.8-4.9-3.8-8.3s.8-4.2,2.4-6.4c1.6-2.2,3.6-4.4,5.9-6.4,2.3-2.1,4.6-3.8,6.9-5.4,2.3-1.5,4.2-2.7,5.8-3.6-1-6.2-2-12-2.8-17.4-.9-5.5-1.3-10.9-1.3-16.2-4.1,4.1-8.2,8.3-12.3,12.6-4.1,4.3-7.6,8.9-10.5,13.9Z"/>
  </g>
</svg>