<?xml version="1.0" encoding="UTF-8"?>
<svg id="Laag_1" data-name="Laag 1" xmlns="http://www.w3.org/2000/svg" viewBox="0 0 600 262.5">
  <defs>
    <style>
      .cls-1 {
        fill: #be1622;
      }

      .cls-2 {
        fill: #1d1d1b;
      }
    </style>
  </defs>
  <g>
    <path class="cls-1" d="M68.85,154.72c1.48,1.07,2.22,2.49,2.22,4.28,0,1.07-.41,2.05-1.24,2.94s-2.06,1.34-3.71,1.34c-3.12,0-6.29.23-9.5.68-3.2.45-6.46.66-9.75.66-2.3,0-4.65-.31-7.03-.94-2.39-.62-4.57-1.74-6.54-3.34-1.98-1.61-3.59-3.84-4.82-6.7-1.23-2.84-1.85-6.6-1.85-11.24,0-6.43,1.2-13.52,3.59-21.29,2.38-7.76,5.3-15.44,8.76-23.02,3.46-7.58,7.11-14.6,10.99-21.02,3.86-6.43,7.28-11.52,10.24-15.26,1.82-2.49,4.28-4.96,7.41-7.37,3.12-2.41,6.33-3.62,9.62-3.62s6.42,1.21,8.89,3.62,4.52,5.36,6.17,8.84,2.92,7.14,3.83,10.98c.9,3.84,1.53,7.09,1.86,9.77.65,4.28,1.11,8.66,1.36,13.12.24,4.47.37,9.01.37,13.65,0,11.96-.46,24.2-1.37,36.68-.9,12.5-1.36,24.28-1.36,35.34v9.37c.82-1.78,1.57-3.52,2.22-5.22.66-1.69,1.49-3.43,2.47-5.22,2.14-4.28,4.36-9.2,6.67-14.73,2.3-5.52,4.65-11.16,7.03-16.87,2.39-5.71,4.85-11.29,7.41-16.73,2.54-5.45,5.13-10.31,7.78-14.59,2.63-4.29,5.26-7.72,7.9-10.32,2.63-2.58,5.26-3.88,7.91-3.88,3.12,0,5.42,1.17,6.91,3.48,1.48,2.33,2.22,4.91,2.22,7.77v4.02c0,1.6-.17,2.77-.49,3.48v2.41c0,7.87-.05,14.47-.13,19.82-.08,5.36-.2,9.82-.36,13.39-.17,3.57-.29,6.47-.37,8.71-.09,2.23-.13,4.15-.13,5.75,0,3.75.08,7.77.25,12.05.16,4.28.65,8.3,1.48,12.05,2.31-7.5,5.02-14.86,8.15-22.1,3.12-7.22,6.09-14.5,8.89-21.82,2.63-6.96,5.39-14.5,8.27-22.62,2.88-8.13,5.89-16.29,9.01-24.5,3.13-8.2,6.26-16.29,9.38-24.23,3.12-7.94,6.34-15.31,9.63-22.1.98-1.78,2.3-2.67,3.95-2.67.98,0,1.85.39,2.59,1.2s1.12,1.92,1.12,3.34c0,.9-.09,1.61-.25,2.15-5.6,12.68-10.7,25.57-15.31,38.69-4.6,13.12-9.01,26.33-13.2,39.63-4.2,13.3-8.4,26.42-12.6,39.36-4.2,12.94-8.6,25.4-13.21,37.36-1.81,2.31-3.7,3.48-5.68,3.48-.98-.19-2.39-.76-4.2-1.74s-3.46-2.45-4.93-4.41c-1.49-1.97-2.68-4.73-3.59-8.3s-1.6-7.64-2.09-12.18c-.5-4.55-.83-9.47-.99-14.73s-.24-10.48-.24-15.67c0-6.43.08-12.71.24-18.87.16-6.17.25-11.65.25-16.47-4.28,8.04-7.99,15.9-11.11,23.57-3.13,7.68-6.05,15.18-8.77,22.49-2.71,7.32-5.42,14.46-8.15,21.42-2.71,6.96-5.72,13.84-9.01,20.62-1.65,3.56-3.04,6.07-4.19,7.5-1.16,1.43-2.56,2.15-4.2,2.15-3.46,0-6.09-1.44-7.91-4.29-1.81-2.85-3.16-6.29-4.07-10.31s-1.45-8.16-1.61-12.45c-.16-4.28-.24-7.76-.24-10.44,0-4.82.24-10.45.73-16.87.49-6.43,1.07-13.26,1.73-20.48.66-7.23,1.24-14.64,1.73-22.23.5-7.58.74-14.95.74-22.1,0-3.75-.16-7.9-.49-12.45-.33-4.54-.82-8.84-1.48-12.85-.66-4.02-1.61-7.41-2.84-10.18s-2.68-4.15-4.32-4.15c-1.82,0-4.12,1.25-6.91,3.75-2.8,2.51-5.77,5.75-8.89,9.77s-6.22,8.62-9.26,13.79-5.8,10.48-8.27,15.93c-2.47,5.45-4.49,10.8-6.05,16.07-1.57,5.26-2.35,9.95-2.35,14.05,0,8.75,3.79,13.12,11.36,13.12,2.79,0,5.68-.27,8.64-.81s5.68-.8,8.15-.8h2.59c.74,0,1.52.17,2.35.53Z"/>
    <path class="cls-1" d="M241.18,155.25c-1.65,3.75-3.43,7.5-5.31,11.24s-4.03,7.23-6.42,10.45c-2.38,3.2-5.02,6.01-7.9,8.43-2.88,2.41-6.14,4.15-9.75,5.22,0,3.75.49,7.45,1.48,11.11.99,3.66,3.04,5.49,6.18,5.49.82,0,1.69-.09,2.59-.27.9-.17,1.93-.71,3.08-1.6.98-.54,2.43-1.51,4.32-2.95,1.89-1.43,3.95-3.07,6.18-4.95,2.22-1.87,4.36-3.93,6.42-6.17s3.58-4.5,4.56-6.82c.49-1.25,1.24-1.87,2.22-1.87,1.16,0,2.23.53,3.21,1.6s1.48,2.32,1.48,3.75c0,1.25-.98,3.21-2.96,5.89-1.97,2.68-4.24,5.45-6.78,8.3-2.56,2.85-5.18,5.53-7.91,8.03-2.71,2.51-4.81,4.11-6.3,4.82-.49.17-1.93.98-4.32,2.41-2.38,1.43-4.4,2.15-6.05,2.15-3.62,0-6.75-.81-9.38-2.41-2.63-1.61-4.81-3.75-6.54-6.43s-3-5.75-3.83-9.24c-.82-3.48-1.24-7.09-1.24-10.84-.98-.53-1.48-1.51-1.48-2.94,0-1.25.41-2.32,1.24-3.21,0-2.15.08-4.33.24-6.56s.58-4.51,1.24-6.83c.99-3.75,2.35-8.21,4.08-13.39s3.91-10.13,6.54-14.86,5.76-8.74,9.38-12.05c3.62-3.3,7.74-4.96,12.35-4.96s7.74,1.66,9.38,4.96c1.64,3.31,2.46,7.09,2.46,11.39,0,2.49-.2,4.95-.61,7.35-.41,2.42-1.03,4.34-1.85,5.76ZM229.33,144.01c-1.65,1.43-3.3,3.52-4.94,6.29s-3.12,5.76-4.44,8.97c-1.32,3.21-2.55,6.53-3.71,9.91-1.15,3.39-2.06,6.52-2.71,9.37,1.98-1.96,4.44-5.71,7.4-11.24.66-1.25,1.49-2.81,2.47-4.68s1.89-3.92,2.71-6.17c.82-2.22,1.57-4.41,2.23-6.56.65-2.14.98-4.1.98-5.88Z"/>
    <path class="cls-1" d="M293.78,150.97c0,.53-.04.98-.12,1.34-.09.36-.21.71-.37,1.07.32,0,.61-.04.86-.13.24-.1.53-.14.86-.14,2.3,0,4.03.85,5.18,2.55,1.15,1.7,1.73,3.98,1.73,6.82-.49,2.33-1.2,5.27-2.1,8.84-.9,3.57-1.85,7.28-2.84,11.11-.98,3.85-1.85,7.64-2.59,11.39-.73,3.75-1.11,7.05-1.11,9.9,0,1.61.16,3.13.49,4.55,2.47-.17,4.77-1.25,6.91-3.21s4.2-4.05,6.17-6.3c1.98-2.22,3.79-4.28,5.44-6.16s3.12-2.81,4.44-2.81c2.63,0,3.96,1.43,3.96,4.28,0,1.08-.33,2.23-.99,3.49-.82.89-2.18,2.59-4.07,5.09-1.9,2.49-4.08,5.09-6.54,7.77-2.47,2.67-5.23,5.08-8.28,7.22-3.04,2.15-6.05,3.21-9.01,3.21-2.3,0-4.2-.76-5.68-2.28s-2.59-3.44-3.34-5.75c-.73-2.32-1.24-4.73-1.48-7.23-.25-2.49-.37-4.82-.37-6.96-.98,1.07-2.26,2.32-3.83,3.75-1.57,1.44-3.25,2.87-5.06,4.28-1.81,1.44-3.62,2.64-5.42,3.62-1.82.98-3.38,1.47-4.69,1.47-4.29,0-7.75-1.51-10.38-4.54-2.63-3.04-3.95-7.23-3.95-12.58,0-7.51,1.02-14.73,3.08-21.69s4.73-13.16,8.03-18.61c3.3-5.45,6.95-9.77,10.99-12.99,4.03-3.21,7.94-4.82,11.72-4.82s6.58,1.33,8.89,4.01c2.3,2.68,3.46,5.81,3.46,9.37v1.08ZM262.17,193.27c3.46-2.15,6.26-4.83,8.4-8.04,2.13-3.21,4.11-6.6,5.93-10.18,1.81-3.56,3.62-7.05,5.42-10.44s4.03-6.33,6.67-8.84c-1.82-.71-2.72-2.15-2.72-4.28l-.24-1.87-5.68-2.15c-2.96,2.15-5.56,4.83-7.79,8.03-2.22,3.21-4.07,6.74-5.55,10.58-1.49,3.85-2.6,7.81-3.34,11.92-.74,4.11-1.12,8.13-1.12,12.05v3.21Z"/>
    <path class="cls-1" d="M330.57,173.73c.49-5.89,1.11-11.65,1.85-17.28.74-5.62,1.69-11.29,2.84-17-5.93,1.43-10.17,2.68-12.72,3.75s-4.49,1.6-5.81,1.6c-1.97,0-2.96-1.43-2.96-4.28,0-2.68,1.61-5.22,4.82-7.63,3.2-2.41,6.95-4.6,11.23-6.56,2.63-2.51,4.69-4.77,6.17-6.83,1.49-2.05,2.72-4.19,3.71-6.43s1.81-4.68,2.47-7.37c.65-2.67,1.48-5.88,2.46-9.63.5-1.61,1.12-4.24,1.86-7.9.74-3.66,1.73-7.37,2.96-11.11,1.24-3.75,2.75-7.05,4.56-9.91,1.81-2.85,4.04-4.28,6.67-4.28s3.95,1.34,3.95,4.02c0,1.43-.24,3.43-.74,6.02-.49,2.58-1.2,5.94-2.1,10.03-.9,4.11-1.97,9.15-3.2,15.13s-2.59,13.07-4.08,21.29c1.65,0,3.21-.04,4.69-.14,1.49-.09,2.96-.13,4.45-.13h6.54c2.55,0,5.02.13,7.4.4,2.39.27,4.4.76,6.05,1.47,1.65.72,2.47,1.87,2.47,3.49s-1.44,2.94-4.32,4.01c-2.88,1.08-6.26,2.06-10.12,2.95-3.88.89-7.79,1.73-11.73,2.54s-6.99,1.66-9.13,2.55c-1.82,8.56-3.38,17.72-4.69,27.44-1.32,9.73-1.98,18.87-1.98,27.44,0,1.07.04,2.49.13,4.28.08,1.79.16,3.62.24,5.49s.25,3.48.49,4.82c.25,1.34.62,2,1.12,2,1.81,0,5.56-2.9,11.23-8.69,5.68-5.81,11.72-14.15,18.14-25.04.82-.89,1.82-1.34,2.96-1.34s2.14.4,2.96,1.2c.82.81,1.24,1.84,1.24,3.08,0,.89-.41,1.97-1.24,3.21-2.3,4.82-5.06,9.82-8.27,14.99-3.21,5.19-6.54,9.83-10,13.92-3.46,4.11-6.91,7.5-10.38,10.18-3.46,2.68-6.66,4.02-9.62,4.02-2.8,0-5.06-1.08-6.79-3.21-1.73-2.15-3.12-4.73-4.2-7.77-1.06-3.03-1.81-6.24-2.22-9.64-.41-3.39-.61-6.42-.61-9.1,0-3.57.12-7.05.37-10.45.24-3.39.53-6.6.86-9.63Z"/>
    <path class="cls-1" d="M385.37,172.39c1.15-8.57,2.3-17.18,3.46-25.84,1.15-8.65,2.51-17.27,4.07-25.83,1.57-8.57,3.47-17.01,5.69-25.31,2.22-8.3,4.97-16.38,8.27-24.23,1.65-3.92,3.62-8.03,5.93-12.32,2.3-4.28,4.93-8.16,7.9-11.65,2.96-3.48,6.22-6.37,9.75-8.69s7.36-3.49,11.48-3.49c5.26,0,9.75,2.1,13.45,6.3,3.71,4.19,5.56,9.69,5.56,16.46,0,10-1.69,19.33-5.06,27.98-3.38,8.66-7.7,16.73-12.96,24.24-5.26,7.5-11.15,14.46-17.65,20.87-6.5,6.43-12.88,12.5-19.14,18.22l-2.22,1.87c-.82,5.18-1.57,10.35-2.22,15.53-.66,5.18-1.24,10.35-1.73,15.53.82-1.07,1.93-2.49,3.34-4.28,1.4-1.78,2.91-3.48,4.56-5.09,1.65-1.6,3.34-2.99,5.06-4.15,1.73-1.15,3.24-1.73,4.57-1.73.82,0,1.56.09,2.22.26,3.79,1.79,6.3,4.15,7.53,7.09,1.23,2.95,1.97,6.25,2.22,9.91.24,3.66.37,7.45.37,11.37s.49,7.86,1.48,11.79c.49,0,.82.09.98.26,1.32-1.24,2.92-2.68,4.82-4.28,1.89-1.6,3.49-2.41,4.81-2.41,2.63,0,3.95,1.43,3.95,4.28,0,.89-.49,2.06-1.48,3.48-.99,1.44-2.23,2.87-3.71,4.29-1.49,1.43-3.08,2.63-4.81,3.61s-3.34,1.48-4.82,1.48c-2.95,0-5.26-1.66-6.91-4.96-1.65-3.3-2.88-7.14-3.7-11.52-.82-4.37-1.41-8.61-1.73-12.71-.33-4.11-.74-6.96-1.24-8.57-2.8,2.51-5.1,5.32-6.91,8.44-1.82,3.12-3.46,6.33-4.94,9.63-1.48,3.31-3,6.66-4.57,10.05-1.56,3.39-3.5,6.52-5.8,9.37-1.49,1.07-2.96,1.61-4.44,1.61-1.65,0-3.01-.59-4.08-1.74s-1.89-2.68-2.47-4.55c-.57-1.87-.94-3.88-1.11-6.02-.17-2.15-.25-4.28-.25-6.43,0-4.82.29-9.67.86-14.59.57-4.91,1.12-9.41,1.61-13.52ZM415.25,97.15c-1.82,6.25-3.43,12.41-4.82,18.48-1.4,6.07-2.67,12.22-3.83,18.47l5.44-5.62c4.44-4.82,8.77-9.86,12.96-15.12,4.2-5.26,7.91-10.75,11.11-16.47,3.21-5.71,5.81-11.73,7.78-18.07,1.98-6.33,2.96-13.16,2.96-20.48,0-1.78-.53-3.21-1.6-4.28-1.07-1.07-2.43-1.6-4.08-1.6-3.12,0-6.05,1.6-8.76,4.82-2.72,3.21-5.15,7.09-7.28,11.65-2.14,4.55-4.04,9.41-5.69,14.59-1.65,5.19-3.04,9.74-4.19,13.66Z"/>
    <path class="cls-1" d="M490.55,155.25c-1.65,3.75-3.43,7.5-5.31,11.24s-4.03,7.23-6.42,10.45c-2.38,3.2-5.02,6.01-7.9,8.43-2.88,2.41-6.14,4.15-9.75,5.22,0,3.75.49,7.45,1.48,11.11.99,3.66,3.04,5.49,6.18,5.49.82,0,1.69-.09,2.59-.27.9-.17,1.93-.71,3.08-1.6.98-.54,2.43-1.51,4.32-2.95,1.89-1.43,3.95-3.07,6.18-4.95,2.22-1.87,4.36-3.93,6.42-6.17s3.58-4.5,4.56-6.82c.49-1.25,1.24-1.87,2.22-1.87,1.16,0,2.23.53,3.21,1.6s1.48,2.32,1.48,3.75c0,1.25-.98,3.21-2.96,5.89-1.97,2.68-4.24,5.45-6.78,8.3-2.56,2.85-5.18,5.53-7.91,8.03-2.71,2.51-4.81,4.11-6.3,4.82-.49.17-1.93.98-4.32,2.41-2.38,1.43-4.4,2.15-6.05,2.15-3.62,0-6.75-.81-9.38-2.41-2.63-1.61-4.81-3.75-6.54-6.43s-3-5.75-3.83-9.24c-.82-3.48-1.24-7.09-1.24-10.84-.98-.53-1.48-1.51-1.48-2.94,0-1.25.41-2.32,1.24-3.21,0-2.15.08-4.33.24-6.56s.58-4.51,1.24-6.83c.99-3.75,2.35-8.21,4.08-13.39s3.91-10.13,6.54-14.86c2.63-4.73,5.76-8.74,9.38-12.05,3.62-3.3,7.74-4.96,12.35-4.96s7.74,1.66,9.38,4.96c1.64,3.31,2.46,7.09,2.46,11.39,0,2.49-.2,4.95-.61,7.35-.41,2.42-1.03,4.34-1.85,5.76ZM478.7,144.01c-1.65,1.43-3.3,3.52-4.94,6.29-1.65,2.77-3.12,5.76-4.44,8.97-1.32,3.21-2.55,6.53-3.71,9.91-1.15,3.39-2.06,6.52-2.71,9.37,1.98-1.96,4.44-5.71,7.4-11.24.66-1.25,1.49-2.81,2.47-4.68s1.89-3.92,2.71-6.17c.82-2.22,1.57-4.41,2.23-6.56.65-2.14.98-4.1.98-5.88Z"/>
    <path class="cls-1" d="M497.45,197.02c-.16,0-.29.04-.37.13s-.29.13-.61.13c-1.33,0-2.35-.49-3.08-1.47-.74-.98-1.12-2.09-1.12-3.34,0-1.61.57-2.94,1.73-4.02,1.48-2.85,3.42-6.96,5.81-12.31,2.38-5.36,4.81-10.88,7.28-16.6,2.46-5.71,4.85-11.11,7.15-16.2,2.31-5.09,4.12-8.79,5.44-11.11,1.32-1.43,2.87-2.14,4.69-2.14,1.48,0,3.12.53,4.93,1.6,3.3,4.83,6.09,8.97,8.4,12.45,2.3,3.48,4.2,6.69,5.68,9.64,1.49,2.94,2.55,5.8,3.21,8.56.65,2.77.98,5.76.98,8.97,0,3.93-.45,8.3-1.36,13.13-.9,4.82-2.02,10.97-3.34,18.47,3.95-.88,7.82-2.14,11.6-3.75,3.79-1.6,7.57-3.21,11.36-4.82.65-.36,1.32-.53,1.97-.53,1.32,0,2.31.45,2.96,1.34s.98,1.87.98,2.94c0,1.43-1.23,3.08-3.7,4.96s-5.39,3.79-8.77,5.75c-3.38,1.97-6.87,3.79-10.49,5.49-3.63,1.69-6.51,2.99-8.64,3.88h-2.47c-2.96,0-5.3-1.56-7.03-4.68-1.73-3.12-2.59-6.02-2.59-8.71,0-3.03.4-6.06,1.23-9.1s1.4-6.07,1.73-9.11c.5-3.92.74-7.5.74-10.71,0-4.82-.57-9.28-1.73-13.39-1.16-4.1-3.12-8.56-5.93-13.38-.65,1.07-1.65,2.9-2.96,5.48-1.32,2.59-2.75,5.59-4.32,8.98s-3.24,6.92-5.05,10.57c-1.82,3.66-3.59,7.1-5.31,10.32-1.73,3.21-3.38,5.98-4.93,8.29-1.57,2.33-2.92,3.76-4.08,4.29Z"/>
  </g>
  <g>
    <path class="cls-2" d="M223.14,58.51c0-.51.15-.9.46-1.18s.64-.42.99-.42c.56,0,.92.36,1.07,1.07l.08,2.59c1.02-1.27,2.1-2.56,3.24-3.85,1.15-1.3,2.34-2.45,3.59-3.47,1.25-1.02,2.54-1.84,3.89-2.48,1.35-.64,2.73-.95,4.16-.95.86,0,1.76.15,2.67.46,3,1.02,5.1,2.53,6.3,4.54,1.19,2.01,1.79,4.21,1.79,6.6,0,1.93-.28,3.89-.84,5.88-.56,1.98-1.27,3.85-2.14,5.61-.87,1.76-1.79,3.33-2.79,4.73-.99,1.4-1.9,2.46-2.71,3.17-.97.81-2.2,1.55-3.7,2.21-1.5.66-3.01.99-4.54.99-1.02,0-2.02-.2-3.01-.59s-1.87-1.06-2.63-2c.05-.46.2-.85.46-1.15.25-.31.56-.46.92-.46.41,0,.76.23,1.07.69.51.15.99.28,1.45.38.46.1.94.15,1.45.15,1.47,0,2.86-.42,4.16-1.26,1.3-.84,2.47-1.88,3.51-3.12,1.04-1.24,1.93-2.57,2.67-3.99.74-1.42,1.31-2.74,1.72-3.96.35-1.07.61-2.13.76-3.2.15-1.06.23-2.08.23-3.04,0-2.28-.47-4.15-1.41-5.59-.94-1.45-2.3-2.17-4.08-2.17-1.37,0-2.79.38-4.24,1.15s-2.84,1.76-4.16,2.98c-1.32,1.22-2.58,2.61-3.78,4.16-1.2,1.55-2.25,3.12-3.17,4.69.25,2.29.46,4.35.61,6.18.15,1.83.23,3.71.23,5.65,0,2.49-.17,4.95-.5,7.36-.33,2.42-.85,4.58-1.56,6.49-.71,1.91-1.6,3.45-2.67,4.62-1.07,1.17-2.37,1.76-3.89,1.76-2.04,0-3.42-.81-4.16-2.44-.74-1.63-1.11-3.89-1.11-6.79,0-1.63.08-3.13.23-4.5.15-1.37.33-2.37.53-2.98.51-1.68,1.09-3.29,1.76-4.85.66-1.55,1.37-3.08,2.14-4.58.76-1.5,1.58-3.03,2.44-4.58.86-1.55,1.76-3.17,2.67-4.85-.05-.97-.08-1.91-.08-2.82s-.03-1.86-.08-2.82ZM223.22,84.99c.05-1.02.1-1.93.15-2.75.05-.81.1-1.59.15-2.33.05-.74.1-1.47.15-2.21.05-.74.08-1.54.08-2.4,0-.36-.01-.71-.04-1.07-.03-.36-.04-.74-.04-1.15-.66,1.48-1.36,2.99-2.1,4.54-.74,1.55-1.41,3.14-2.02,4.77-.61,1.63-1.12,3.28-1.53,4.96-.41,1.68-.61,3.36-.61,5.04,0,1.22.13,2.11.38,2.67.25.56.56.84.92.84s.79-.31,1.3-.92c.51-.61.98-1.41,1.41-2.4.43-.99.81-2.15,1.15-3.47.33-1.32.55-2.7.65-4.12Z"/>
    <path class="cls-2" d="M243.9,91.56c-.05,0-.09.01-.11.04-.03.03-.09.04-.19.04-.41,0-.73-.14-.95-.42-.23-.28-.34-.6-.34-.95,0-.46.18-.84.53-1.15.46-.81,1.05-1.98,1.79-3.51.74-1.53,1.49-3.1,2.25-4.73.76-1.63,1.5-3.17,2.21-4.62.71-1.45,1.27-2.51,1.68-3.17.41-.41.89-.61,1.45-.61.46,0,.97.15,1.53.46,1.02,1.37,1.88,2.56,2.59,3.55.71.99,1.3,1.91,1.76,2.75.46.84.79,1.65.99,2.44.2.79.31,1.64.31,2.56,0,1.12-.14,2.37-.42,3.74-.28,1.37-.62,3.13-1.03,5.27,1.22-.25,2.42-.61,3.59-1.07,1.17-.46,2.34-.92,3.51-1.37.2-.1.41-.15.61-.15.41,0,.71.13.92.38.2.25.31.53.31.84,0,.41-.38.88-1.15,1.41s-1.67,1.08-2.71,1.64c-1.04.56-2.13,1.08-3.24,1.56-1.12.48-2.01.85-2.67,1.11h-.76c-.92,0-1.64-.45-2.18-1.34-.53-.89-.8-1.72-.8-2.48,0-.86.13-1.73.38-2.6.25-.86.43-1.73.53-2.59.15-1.12.23-2.14.23-3.05,0-1.37-.18-2.64-.53-3.82-.36-1.17-.97-2.44-1.83-3.82-.2.31-.51.83-.92,1.57-.41.74-.85,1.59-1.34,2.56s-1.01,1.97-1.56,3.01c-.56,1.04-1.11,2.02-1.64,2.94-.53.92-1.04,1.7-1.53,2.37-.48.66-.9,1.07-1.26,1.22Z"/>
    <path class="cls-2" d="M278.93,79.65c-.51,1.07-1.06,2.14-1.64,3.21-.59,1.07-1.25,2.06-1.98,2.98-.74.92-1.55,1.72-2.44,2.4-.89.69-1.9,1.18-3.01,1.49,0,1.07.15,2.12.46,3.17.31,1.04.94,1.56,1.91,1.56.25,0,.52-.02.8-.08.28-.05.6-.2.95-.46.31-.15.75-.43,1.34-.84.58-.41,1.22-.88,1.91-1.41.69-.53,1.35-1.12,1.98-1.76.64-.64,1.11-1.28,1.41-1.95.15-.36.38-.53.69-.53.35,0,.69.15.99.46.31.31.46.66.46,1.07,0,.36-.31.92-.92,1.68-.61.76-1.31,1.55-2.1,2.37-.79.81-1.6,1.58-2.44,2.29-.84.71-1.49,1.17-1.95,1.37-.15.05-.6.28-1.34.69-.74.41-1.36.61-1.87.61-1.12,0-2.09-.23-2.9-.69-.81-.46-1.49-1.07-2.02-1.83-.53-.76-.93-1.64-1.18-2.63-.26-.99-.38-2.02-.38-3.09-.31-.15-.46-.43-.46-.84,0-.36.13-.66.38-.92,0-.61.02-1.23.08-1.87.05-.64.18-1.28.38-1.95.31-1.07.73-2.34,1.26-3.82.53-1.47,1.21-2.89,2.02-4.24.81-1.35,1.78-2.49,2.9-3.43,1.12-.94,2.39-1.41,3.82-1.41s2.39.47,2.9,1.41c.51.94.76,2.02.76,3.24,0,.71-.06,1.41-.19,2.1-.13.69-.32,1.23-.57,1.64ZM275.27,76.45c-.51.41-1.02,1.01-1.53,1.79-.51.79-.97,1.64-1.37,2.56-.41.92-.79,1.86-1.14,2.82-.36.97-.64,1.86-.84,2.67.61-.56,1.37-1.63,2.29-3.21.2-.36.46-.8.76-1.34.31-.53.58-1.12.84-1.76.25-.64.48-1.26.69-1.87.2-.61.31-1.17.31-1.68Z"/>
    <path class="cls-2" d="M287.17,84.92c.15-1.68.34-3.32.57-4.92.23-1.6.52-3.22.88-4.85-1.83.41-3.14.76-3.93,1.07-.79.31-1.39.46-1.79.46-.61,0-.92-.41-.92-1.22,0-.76.5-1.49,1.49-2.18s2.15-1.31,3.47-1.87c.81-.71,1.45-1.36,1.91-1.95.46-.58.84-1.19,1.15-1.83.31-.64.56-1.34.76-2.1s.46-1.68.76-2.75c.15-.46.34-1.21.57-2.25.23-1.04.53-2.1.91-3.17.38-1.07.85-2.01,1.41-2.82.56-.81,1.25-1.22,2.06-1.22s1.22.38,1.22,1.14c0,.41-.08.98-.23,1.72-.15.74-.37,1.69-.65,2.86-.28,1.17-.61,2.61-.99,4.31-.38,1.7-.8,3.73-1.26,6.07.51,0,.99-.01,1.45-.04s.92-.04,1.37-.04h2.02c.79,0,1.55.04,2.29.11.74.08,1.36.22,1.87.42.51.2.76.53.76.99s-.45.84-1.34,1.15-1.93.59-3.13.84c-1.2.26-2.4.5-3.63.73-1.22.23-2.16.47-2.82.73-.56,2.44-1.04,5.05-1.45,7.82-.41,2.77-.61,5.38-.61,7.82,0,.31.01.71.04,1.22.02.51.05,1.03.08,1.57.02.53.08.99.15,1.37.08.38.19.57.34.57.56,0,1.72-.83,3.47-2.48,1.76-1.65,3.63-4.03,5.61-7.14.25-.25.56-.38.92-.38s.66.11.92.34c.25.23.38.52.38.88,0,.26-.13.56-.38.92-.71,1.37-1.57,2.8-2.56,4.27-.99,1.48-2.02,2.8-3.09,3.97-1.07,1.17-2.14,2.14-3.2,2.9s-2.06,1.15-2.98,1.15c-.86,0-1.56-.31-2.1-.92-.53-.61-.97-1.35-1.3-2.21-.33-.86-.56-1.78-.69-2.75-.13-.97-.19-1.83-.19-2.6,0-1.02.04-2.01.11-2.98.08-.97.16-1.88.27-2.75Z"/>
    <path class="cls-2" d="M304.8,84.92c.15-1.68.34-3.32.57-4.92.23-1.6.52-3.22.88-4.85-1.83.41-3.14.76-3.93,1.07-.79.31-1.39.46-1.79.46-.61,0-.92-.41-.92-1.22,0-.76.5-1.49,1.49-2.18s2.15-1.31,3.47-1.87c.81-.71,1.45-1.36,1.91-1.95.46-.58.84-1.19,1.14-1.83.3-.64.56-1.34.76-2.1s.46-1.68.76-2.75c.15-.46.34-1.21.57-2.25.23-1.04.53-2.1.91-3.17.38-1.07.85-2.01,1.41-2.82.56-.81,1.25-1.22,2.06-1.22s1.22.38,1.22,1.14c0,.41-.08.98-.23,1.72-.15.74-.37,1.69-.65,2.86-.28,1.17-.61,2.61-.99,4.31-.38,1.7-.8,3.73-1.26,6.07.51,0,.99-.01,1.45-.04s.92-.04,1.37-.04h2.02c.79,0,1.55.04,2.29.11.74.08,1.36.22,1.87.42.51.2.76.53.76.99s-.45.84-1.34,1.15-1.93.59-3.13.84c-1.2.26-2.4.5-3.63.73-1.22.23-2.16.47-2.82.73-.56,2.44-1.04,5.05-1.45,7.82-.41,2.77-.61,5.38-.61,7.82,0,.31.01.71.04,1.22.02.51.05,1.03.08,1.57.02.53.08.99.15,1.37.08.38.19.57.34.57.56,0,1.72-.83,3.47-2.48,1.76-1.65,3.63-4.03,5.61-7.14.25-.25.56-.38.92-.38s.66.11.92.34c.25.23.38.52.38.88,0,.26-.13.56-.38.92-.71,1.37-1.57,2.8-2.56,4.27-.99,1.48-2.02,2.8-3.09,3.97-1.07,1.17-2.14,2.14-3.2,2.9s-2.06,1.15-2.98,1.15c-.87,0-1.57-.31-2.1-.92-.53-.61-.97-1.35-1.3-2.21-.33-.86-.56-1.78-.69-2.75s-.19-1.83-.19-2.6c0-1.02.04-2.01.11-2.98.08-.97.16-1.88.27-2.75Z"/>
    <path class="cls-2" d="M320.52,77.59c.05-.41.2-.71.46-.92.25-.2.51-.31.76-.31.81,0,1.22.59,1.22,1.76,0,1.48-.1,2.96-.3,4.46-.2,1.5-.31,3.01-.31,4.54,0,.56.01,1.09.04,1.6.02.51.11,1.04.27,1.6,1.27-1.02,2.28-2.12,3.01-3.32.74-1.19,1.36-2.45,1.87-3.78.51-1.32.95-2.67,1.34-4.04.38-1.37.85-2.77,1.41-4.2.51-.86,1.2-1.3,2.06-1.3s1.42.37,1.68,1.11c.25.74.38,1.74.38,3.01,0,1.37-.04,2.75-.11,4.12-.08,1.37-.11,2.75-.11,4.12v1.45c1.37-.76,2.85-1.49,4.43-2.18,1.58-.69,3.08-1.03,4.5-1.03.61,0,1.16.11,1.64.34s.73.68.73,1.34c0,.56-.14.98-.42,1.26-.28.28-.57.42-.88.42-.56,0-.92-.25-1.07-.76h-.46c-1.48.41-2.91.98-4.31,1.72-1.4.74-2.74,1.54-4.01,2.4,0,.76.01,1.51.04,2.25.02.74.04,1.46.04,2.17,0,3.21-.16,6.36-.5,9.46-.33,3.1-1.01,6.26-2.02,9.46-.36,1.12-.81,2.25-1.37,3.4-.56,1.15-1.22,2.19-1.98,3.13-.76.94-1.64,1.72-2.63,2.33s-2.1.92-3.32.92c-1.32,0-2.48-.31-3.47-.92s-1.84-1.4-2.56-2.37c-.71-.97-1.25-2.06-1.6-3.28-.36-1.22-.54-2.42-.54-3.59,0-2.7.41-5.2,1.22-7.52.81-2.32,1.92-4.44,3.32-6.37,1.4-1.93,3.03-3.71,4.88-5.34,1.86-1.63,3.83-3.13,5.91-4.5v-1.45c0-.46.02-.92.08-1.37-.05,0-.18.17-.38.5-.2.33-.45.73-.73,1.18s-.57.89-.88,1.3c-.3.41-.53.69-.69.84l-2.82,1.98c-.51.36-1.07.53-1.68.53-.71,0-1.29-.16-1.72-.5-.43-.33-.78-.76-1.03-1.3-.25-.53-.42-1.13-.5-1.79-.08-.66-.11-1.32-.11-1.98,0-1.78.18-3.55.53-5.3.36-1.76.59-3.52.69-5.3ZM329.52,102.77c.15-1.98.23-3.94.23-5.88v-2.52c-3.26,2.59-5.84,5.46-7.75,8.59-1.91,3.13-2.96,6.58-3.17,10.34,0,.46.06,1.04.19,1.76.13.71.33,1.39.61,2.02.28.64.64,1.19,1.07,1.68.43.48.98.73,1.64.73.71,0,1.32-.24,1.83-.73.51-.48.95-1.07,1.34-1.76s.71-1.4.99-2.14c.28-.74.5-1.36.65-1.87.51-1.37.97-2.94,1.37-4.69.41-1.76.74-3.6.99-5.53Z"/>
  </g>
</svg>